<?xml version="1.0" encoding="UTF-8" standalone="no"?>
<!DOCTYPE svg PUBLIC "-//W3C//DTD SVG 1.1//EN"
 "http://www.w3.org/Graphics/SVG/1.1/DTD/svg11.dtd">
<!-- Generated by graphviz version 2.40.1 (20161225.0304)
 -->
<!-- Title: dependencies Pages: 1 -->
<svg width="1395pt" height="284pt"
 viewBox="0.00 0.00 1395.00 284.00" xmlns="http://www.w3.org/2000/svg" xmlns:xlink="http://www.w3.org/1999/xlink">
<g id="graph0" class="graph" transform="scale(1 1) rotate(0) translate(4 280)">
<title>dependencies</title>
<polygon fill="#ffffff" stroke="transparent" points="-4,4 -4,-280 1391,-280 1391,4 -4,4"/>
<text text-anchor="start" x="672.5091" y="-42.4" font-family="sans-serif" font-weight="bold" font-size="14.00" fill="#000000">Legend</text>
<polygon fill="#ffffb3" stroke="transparent" points="459.5,-10 459.5,-30 479.5,-30 479.5,-10 459.5,-10"/>
<text text-anchor="start" x="483.129" y="-15.4" font-family="sans-serif" font-size="14.00" fill="#000000"> &#160;Declarations</text>
<polygon fill="#8dd3c7" stroke="transparent" points="572.5,-10 572.5,-30 592.5,-30 592.5,-10 572.5,-10"/>
<text text-anchor="start" x="596.2251" y="-15.4" font-family="sans-serif" font-size="14.00" fill="#000000"> &#160;Module</text>
<polygon fill="#80b1d3" stroke="transparent" points="658.5,-10 658.5,-30 678.5,-30 678.5,-10 658.5,-10"/>
<text text-anchor="start" x="682.2812" y="-15.4" font-family="sans-serif" font-size="14.00" fill="#000000"> &#160;Bootstrap</text>
<polygon fill="#fdb462" stroke="transparent" points="755.5,-10 755.5,-30 775.5,-30 775.5,-10 755.5,-10"/>
<text text-anchor="start" x="779.1732" y="-15.4" font-family="sans-serif" font-size="14.00" fill="#000000"> &#160;Providers</text>
<polygon fill="#fb8072" stroke="transparent" points="851.5,-10 851.5,-30 871.5,-30 871.5,-10 851.5,-10"/>
<text text-anchor="start" x="875.2258" y="-15.4" font-family="sans-serif" font-size="14.00" fill="#000000"> &#160;Exports</text>
<g id="clust1" class="cluster">
<title>cluster_MatUiModule</title>
<polygon fill="none" stroke="#000000" stroke-dasharray="1,5" points="8,-70 8,-268 1379,-268 1379,-70 8,-70"/>
</g>
<g id="clust3" class="cluster">
<title>cluster_MatUiModule_imports</title>
<polygon fill="none" stroke="#000000" points="16,-78 16,-130 1371,-130 1371,-78 16,-78"/>
</g>
<g id="clust4" class="cluster">
<title>cluster_MatUiModule_exports</title>
<polygon fill="none" stroke="#000000" points="66,-208 66,-260 1321,-260 1321,-208 66,-208"/>
</g>
<!-- CommonModule -->
<g id="node1" class="node">
<title>CommonModule</title>
<polygon fill="#8dd3c7" stroke="#000000" points="1362.6681,-122 1359.6681,-126 1338.6681,-126 1335.6681,-122 1251.3319,-122 1251.3319,-86 1362.6681,-86 1362.6681,-122"/>
<text text-anchor="middle" x="1307" y="-99.8" font-family="Times,serif" font-size="14.00" fill="#000000">CommonModule</text>
</g>
<!-- MatUiModule -->
<g id="node11" class="node">
<title>MatUiModule</title>
<polygon fill="#8dd3c7" stroke="#000000" points="730.0968,-187 727.0968,-191 706.0968,-191 703.0968,-187 633.9032,-187 633.9032,-151 730.0968,-151 730.0968,-187"/>
<text text-anchor="middle" x="682" y="-164.8" font-family="Times,serif" font-size="14.00" fill="#000000">MatUiModule</text>
</g>
<!-- CommonModule&#45;&gt;MatUiModule -->
<g id="edge1" class="edge">
<title>CommonModule&#45;&gt;MatUiModule</title>
<path fill="none" stroke="#000000" d="M1282.2018,-122.2222C1282.2018,-140.8285 1282.2018,-167 1282.2018,-167 1282.2018,-167 740.1024,-167 740.1024,-167"/>
<polygon fill="#000000" stroke="#000000" points="740.1025,-163.5001 730.1024,-167 740.1024,-170.5001 740.1025,-163.5001"/>
</g>
<!-- MatIconModule -->
<g id="node2" class="node">
<title>MatIconModule</title>
<polygon fill="#8dd3c7" stroke="#000000" points="1233.4748,-122 1230.4748,-126 1209.4748,-126 1206.4748,-122 1126.5252,-122 1126.5252,-86 1233.4748,-86 1233.4748,-122"/>
<text text-anchor="middle" x="1180" y="-99.8" font-family="Times,serif" font-size="14.00" fill="#000000">MatIconModule</text>
</g>
<!-- MatIconModule&#45;&gt;MatUiModule -->
<g id="edge2" class="edge">
<title>MatIconModule&#45;&gt;MatUiModule</title>
<path fill="none" stroke="#000000" d="M1155.6552,-122.0225C1155.6552,-139.3734 1155.6552,-163 1155.6552,-163 1155.6552,-163 740.4635,-163 740.4635,-163"/>
<polygon fill="#000000" stroke="#000000" points="740.4635,-159.5001 730.4635,-163 740.4634,-166.5001 740.4635,-159.5001"/>
</g>
<!-- FlexLayoutModule -->
<g id="node3" class="node">
<title>FlexLayoutModule</title>
<polygon fill="#8dd3c7" stroke="#000000" points="1108.0954,-122 1105.0954,-126 1084.0954,-126 1081.0954,-122 983.9046,-122 983.9046,-86 1108.0954,-86 1108.0954,-122"/>
<text text-anchor="middle" x="1046" y="-99.8" font-family="Times,serif" font-size="14.00" fill="#000000">FlexLayoutModule</text>
</g>
<!-- FlexLayoutModule&#45;&gt;MatUiModule -->
<g id="edge3" class="edge">
<title>FlexLayoutModule&#45;&gt;MatUiModule</title>
<path fill="none" stroke="#000000" d="M1011.7639,-122.0091C1011.7639,-138.0494 1011.7639,-159 1011.7639,-159 1011.7639,-159 740.3037,-159 740.3037,-159"/>
<polygon fill="#000000" stroke="#000000" points="740.3037,-155.5001 730.3037,-159 740.3036,-162.5001 740.3037,-155.5001"/>
</g>
<!-- MatInputModule -->
<g id="node4" class="node">
<title>MatInputModule</title>
<polygon fill="#8dd3c7" stroke="#000000" points="965.6513,-122 962.6513,-126 941.6513,-126 938.6513,-122 854.3487,-122 854.3487,-86 965.6513,-86 965.6513,-122"/>
<text text-anchor="middle" x="910" y="-99.8" font-family="Times,serif" font-size="14.00" fill="#000000">MatInputModule</text>
</g>
<!-- MatInputModule&#45;&gt;MatUiModule -->
<g id="edge4" class="edge">
<title>MatInputModule&#45;&gt;MatUiModule</title>
<path fill="none" stroke="#000000" d="M880.2653,-122.1243C880.2653,-136.7832 880.2653,-155 880.2653,-155 880.2653,-155 740.2476,-155 740.2476,-155"/>
<polygon fill="#000000" stroke="#000000" points="740.2476,-151.5001 730.2476,-155 740.2476,-158.5001 740.2476,-151.5001"/>
</g>
<!-- MatFormFieldModule -->
<g id="node5" class="node">
<title>MatFormFieldModule</title>
<polygon fill="#8dd3c7" stroke="#000000" points="836.712,-122 833.712,-126 812.712,-126 809.712,-122 695.288,-122 695.288,-86 836.712,-86 836.712,-122"/>
<text text-anchor="middle" x="766" y="-99.8" font-family="Times,serif" font-size="14.00" fill="#000000">MatFormFieldModule</text>
</g>
<!-- MatFormFieldModule&#45;&gt;MatUiModule -->
<g id="edge5" class="edge">
<title>MatFormFieldModule&#45;&gt;MatUiModule</title>
<path fill="none" stroke="#000000" d="M712.7213,-122.1061C712.7213,-122.1061 712.7213,-140.991 712.7213,-140.991"/>
<polygon fill="#000000" stroke="#000000" points="709.2213,-140.9909 712.7213,-150.991 716.2213,-140.991 709.2213,-140.9909"/>
</g>
<!-- MatButtonModule -->
<g id="node6" class="node">
<title>MatButtonModule</title>
<polygon fill="#8dd3c7" stroke="#000000" points="677.2176,-122 674.2176,-126 653.2176,-126 650.2176,-122 556.7824,-122 556.7824,-86 677.2176,-86 677.2176,-122"/>
<text text-anchor="middle" x="617" y="-99.8" font-family="Times,serif" font-size="14.00" fill="#000000">MatButtonModule</text>
</g>
<!-- MatButtonModule&#45;&gt;MatUiModule -->
<g id="edge6" class="edge">
<title>MatButtonModule&#45;&gt;MatUiModule</title>
<path fill="none" stroke="#000000" d="M655.5302,-122.1061C655.5302,-122.1061 655.5302,-140.991 655.5302,-140.991"/>
<polygon fill="#000000" stroke="#000000" points="652.0302,-140.9909 655.5302,-150.991 659.0302,-140.991 652.0302,-140.9909"/>
</g>
<!-- FormsModule -->
<g id="node7" class="node">
<title>FormsModule</title>
<polygon fill="#8dd3c7" stroke="#000000" points="538.8288,-122 535.8288,-126 514.8288,-126 511.8288,-122 443.1712,-122 443.1712,-86 538.8288,-86 538.8288,-122"/>
<text text-anchor="middle" x="491" y="-99.8" font-family="Times,serif" font-size="14.00" fill="#000000">FormsModule</text>
</g>
<!-- FormsModule&#45;&gt;MatUiModule -->
<g id="edge7" class="edge">
<title>FormsModule&#45;&gt;MatUiModule</title>
<path fill="none" stroke="#000000" d="M511.2674,-122.1243C511.2674,-136.7832 511.2674,-155 511.2674,-155 511.2674,-155 623.5316,-155 623.5316,-155"/>
<polygon fill="#000000" stroke="#000000" points="623.5316,-158.5001 633.5316,-155 623.5315,-151.5001 623.5316,-158.5001"/>
</g>
<!-- MatExpansionModule -->
<g id="node8" class="node">
<title>MatExpansionModule</title>
<polygon fill="#8dd3c7" stroke="#000000" points="425.7021,-122 422.7021,-126 401.7021,-126 398.7021,-122 284.2979,-122 284.2979,-86 425.7021,-86 425.7021,-122"/>
<text text-anchor="middle" x="355" y="-99.8" font-family="Times,serif" font-size="14.00" fill="#000000">MatExpansionModule</text>
</g>
<!-- MatExpansionModule&#45;&gt;MatUiModule -->
<g id="edge8" class="edge">
<title>MatExpansionModule&#45;&gt;MatUiModule</title>
<path fill="none" stroke="#000000" d="M373.625,-122.0091C373.625,-138.0494 373.625,-159 373.625,-159 373.625,-159 623.8164,-159 623.8164,-159"/>
<polygon fill="#000000" stroke="#000000" points="623.8164,-162.5001 633.8164,-159 623.8164,-155.5001 623.8164,-162.5001"/>
</g>
<!-- MatMenuModule -->
<g id="node9" class="node">
<title>MatMenuModule</title>
<polygon fill="#8dd3c7" stroke="#000000" points="266.2591,-122 263.2591,-126 242.2591,-126 239.2591,-122 151.7409,-122 151.7409,-86 266.2591,-86 266.2591,-122"/>
<text text-anchor="middle" x="209" y="-99.8" font-family="Times,serif" font-size="14.00" fill="#000000">MatMenuModule</text>
</g>
<!-- MatMenuModule&#45;&gt;MatUiModule -->
<g id="edge9" class="edge">
<title>MatMenuModule&#45;&gt;MatUiModule</title>
<path fill="none" stroke="#000000" d="M228.4869,-122.0225C228.4869,-139.3734 228.4869,-163 228.4869,-163 228.4869,-163 623.8955,-163 623.8955,-163"/>
<polygon fill="#000000" stroke="#000000" points="623.8955,-166.5001 633.8955,-163 623.8955,-159.5001 623.8955,-166.5001"/>
</g>
<!-- MatCardModule -->
<g id="node10" class="node">
<title>MatCardModule</title>
<polygon fill="#8dd3c7" stroke="#000000" points="133.8118,-122 130.8118,-126 109.8118,-126 106.8118,-122 24.1882,-122 24.1882,-86 133.8118,-86 133.8118,-122"/>
<text text-anchor="middle" x="79" y="-99.8" font-family="Times,serif" font-size="14.00" fill="#000000">MatCardModule</text>
</g>
<!-- MatCardModule&#45;&gt;MatUiModule -->
<g id="edge10" class="edge">
<title>MatCardModule&#45;&gt;MatUiModule</title>
<path fill="none" stroke="#000000" d="M103.6208,-122.2222C103.6208,-140.8285 103.6208,-167 103.6208,-167 103.6208,-167 623.6825,-167 623.6825,-167"/>
<polygon fill="#000000" stroke="#000000" points="623.6826,-170.5001 633.6825,-167 623.6825,-163.5001 623.6826,-170.5001"/>
</g>
<!-- MatIconModule  -->
<g id="node12" class="node">
<title>MatIconModule </title>
<polygon fill="#fb8072" stroke="#000000" points="1313.4758,-252 1202.5242,-252 1202.5242,-216 1313.4758,-216 1313.4758,-252"/>
<text text-anchor="middle" x="1258" y="-229.8" font-family="Times,serif" font-size="14.00" fill="#000000">MatIconModule </text>
</g>
<!-- MatUiModule&#45;&gt;MatIconModule  -->
<g id="edge11" class="edge">
<title>MatUiModule&#45;&gt;MatIconModule </title>
<path fill="none" stroke="#000000" stroke-dasharray="5,2" d="M730.0493,-171C861.6418,-171 1218.125,-171 1218.125,-171 1218.125,-171 1218.125,-205.7778 1218.125,-205.7778"/>
<polygon fill="#000000" stroke="#000000" points="1214.6251,-205.7778 1218.125,-215.7778 1221.6251,-205.7778 1214.6251,-205.7778"/>
</g>
<!-- FlexLayoutModule  -->
<g id="node13" class="node">
<title>FlexLayoutModule </title>
<polygon fill="#fb8072" stroke="#000000" points="1184.596,-252 1057.404,-252 1057.404,-216 1184.596,-216 1184.596,-252"/>
<text text-anchor="middle" x="1121" y="-229.8" font-family="Times,serif" font-size="14.00" fill="#000000">FlexLayoutModule </text>
</g>
<!-- MatUiModule&#45;&gt;FlexLayoutModule  -->
<g id="edge12" class="edge">
<title>MatUiModule&#45;&gt;FlexLayoutModule </title>
<path fill="none" stroke="#000000" stroke-dasharray="5,2" d="M730.3247,-175C836.8788,-175 1082.625,-175 1082.625,-175 1082.625,-175 1082.625,-205.9775 1082.625,-205.9775"/>
<polygon fill="#000000" stroke="#000000" points="1079.1251,-205.9774 1082.625,-215.9775 1086.1251,-205.9775 1079.1251,-205.9774"/>
</g>
<!-- MatInputModule  -->
<g id="node14" class="node">
<title>MatInputModule </title>
<polygon fill="#fb8072" stroke="#000000" points="1039.6509,-252 924.3491,-252 924.3491,-216 1039.6509,-216 1039.6509,-252"/>
<text text-anchor="middle" x="982" y="-229.8" font-family="Times,serif" font-size="14.00" fill="#000000">MatInputModule </text>
</g>
<!-- MatUiModule&#45;&gt;MatInputModule  -->
<g id="edge13" class="edge">
<title>MatUiModule&#45;&gt;MatInputModule </title>
<path fill="none" stroke="#000000" stroke-dasharray="5,2" d="M730.2612,-179C806.2231,-179 945.125,-179 945.125,-179 945.125,-179 945.125,-205.9909 945.125,-205.9909"/>
<polygon fill="#000000" stroke="#000000" points="941.6251,-205.9909 945.125,-215.9909 948.6251,-205.991 941.6251,-205.9909"/>
</g>
<!-- MatFormFieldModule  -->
<g id="node15" class="node">
<title>MatFormFieldModule </title>
<polygon fill="#fb8072" stroke="#000000" points="906.2121,-252 761.7879,-252 761.7879,-216 906.2121,-216 906.2121,-252"/>
<text text-anchor="middle" x="834" y="-229.8" font-family="Times,serif" font-size="14.00" fill="#000000">MatFormFieldModule </text>
</g>
<!-- MatUiModule&#45;&gt;MatFormFieldModule  -->
<g id="edge14" class="edge">
<title>MatUiModule&#45;&gt;MatFormFieldModule </title>
<path fill="none" stroke="#000000" stroke-dasharray="5,2" d="M730.3154,-183C762.5788,-183 799.125,-183 799.125,-183 799.125,-183 799.125,-205.8757 799.125,-205.8757"/>
<polygon fill="#000000" stroke="#000000" points="795.6251,-205.8757 799.125,-215.8757 802.6251,-205.8757 795.6251,-205.8757"/>
</g>
<!-- MatButtonModule  -->
<g id="node16" class="node">
<title>MatButtonModule </title>
<polygon fill="#fb8072" stroke="#000000" points="743.7177,-252 620.2823,-252 620.2823,-216 743.7177,-216 743.7177,-252"/>
<text text-anchor="middle" x="682" y="-229.8" font-family="Times,serif" font-size="14.00" fill="#000000">MatButtonModule </text>
</g>
<!-- MatUiModule&#45;&gt;MatButtonModule  -->
<g id="edge15" class="edge">
<title>MatUiModule&#45;&gt;MatButtonModule </title>
<path fill="none" stroke="#000000" stroke-dasharray="5,2" d="M682,-187.1061C682,-187.1061 682,-205.991 682,-205.991"/>
<polygon fill="#000000" stroke="#000000" points="678.5001,-205.9909 682,-215.991 685.5001,-205.991 678.5001,-205.9909"/>
</g>
<!-- MatMenuModule  -->
<g id="node17" class="node">
<title>MatMenuModule </title>
<polygon fill="#fb8072" stroke="#000000" points="602.2591,-252 483.7409,-252 483.7409,-216 602.2591,-216 602.2591,-252"/>
<text text-anchor="middle" x="543" y="-229.8" font-family="Times,serif" font-size="14.00" fill="#000000">MatMenuModule </text>
</g>
<!-- MatUiModule&#45;&gt;MatMenuModule  -->
<g id="edge16" class="edge">
<title>MatUiModule&#45;&gt;MatMenuModule </title>
<path fill="none" stroke="#000000" stroke-dasharray="5,2" d="M633.7563,-183C607.1736,-183 579.5104,-183 579.5104,-183 579.5104,-183 579.5104,-205.8757 579.5104,-205.8757"/>
<polygon fill="#000000" stroke="#000000" points="576.0104,-205.8757 579.5104,-215.8757 583.0104,-205.8757 576.0104,-205.8757"/>
</g>
<!-- MatExpansionModule  -->
<g id="node18" class="node">
<title>MatExpansionModule </title>
<polygon fill="#fb8072" stroke="#000000" points="466.2023,-252 321.7977,-252 321.7977,-216 466.2023,-216 466.2023,-252"/>
<text text-anchor="middle" x="394" y="-229.8" font-family="Times,serif" font-size="14.00" fill="#000000">MatExpansionModule </text>
</g>
<!-- MatUiModule&#45;&gt;MatExpansionModule  -->
<g id="edge17" class="edge">
<title>MatUiModule&#45;&gt;MatExpansionModule </title>
<path fill="none" stroke="#000000" stroke-dasharray="5,2" d="M633.8259,-179C567.1462,-179 454.8435,-179 454.8435,-179 454.8435,-179 454.8435,-205.9909 454.8435,-205.9909"/>
<polygon fill="#000000" stroke="#000000" points="451.3435,-205.9909 454.8435,-215.9909 458.3435,-205.991 451.3435,-205.9909"/>
</g>
<!-- MatCardModule  -->
<g id="node19" class="node">
<title>MatCardModule </title>
<polygon fill="#fb8072" stroke="#000000" points="303.3116,-252 190.6884,-252 190.6884,-216 303.3116,-216 303.3116,-252"/>
<text text-anchor="middle" x="247" y="-229.8" font-family="Times,serif" font-size="14.00" fill="#000000">MatCardModule </text>
</g>
<!-- MatUiModule&#45;&gt;MatCardModule  -->
<g id="edge18" class="edge">
<title>MatUiModule&#45;&gt;MatCardModule </title>
<path fill="none" stroke="#000000" stroke-dasharray="5,2" d="M633.6319,-175C529.5955,-175 293.9024,-175 293.9024,-175 293.9024,-175 293.9024,-205.9775 293.9024,-205.9775"/>
<polygon fill="#000000" stroke="#000000" points="290.4024,-205.9774 293.9024,-215.9775 297.4024,-205.9775 290.4024,-205.9774"/>
</g>
<!-- FormsModule  -->
<g id="node20" class="node">
<title>FormsModule </title>
<polygon fill="#fb8072" stroke="#000000" points="172.3283,-252 73.6717,-252 73.6717,-216 172.3283,-216 172.3283,-252"/>
<text text-anchor="middle" x="123" y="-229.8" font-family="Times,serif" font-size="14.00" fill="#000000">FormsModule </text>
</g>
<!-- MatUiModule&#45;&gt;FormsModule  -->
<g id="edge19" class="edge">
<title>MatUiModule&#45;&gt;FormsModule </title>
<path fill="none" stroke="#000000" stroke-dasharray="5,2" d="M633.5482,-171C504.4625,-171 162.0173,-171 162.0173,-171 162.0173,-171 162.0173,-205.7778 162.0173,-205.7778"/>
<polygon fill="#000000" stroke="#000000" points="158.5173,-205.7778 162.0174,-215.7778 165.5173,-205.7778 158.5173,-205.7778"/>
</g>
</g>
</svg>
