<?xml version="1.0" encoding="UTF-8" standalone="no"?>
<!DOCTYPE svg PUBLIC "-//W3C//DTD SVG 1.1//EN"
 "http://www.w3.org/Graphics/SVG/1.1/DTD/svg11.dtd">
<!-- Generated by graphviz version 2.40.1 (20161225.0304)
 -->
<!-- Title: dependencies Pages: 1 -->
<svg width="860pt" height="284pt"
 viewBox="0.00 0.00 860.00 284.00" xmlns="http://www.w3.org/2000/svg" xmlns:xlink="http://www.w3.org/1999/xlink">
<g id="graph0" class="graph" transform="scale(1 1) rotate(0) translate(4 280)">
<title>dependencies</title>
<polygon fill="#ffffff" stroke="transparent" points="-4,4 -4,-280 856,-280 856,4 -4,4"/>
<text text-anchor="start" x="405.0091" y="-42.4" font-family="sans-serif" font-weight="bold" font-size="14.00" fill="#000000">Legend</text>
<polygon fill="#ffffb3" stroke="transparent" points="192,-10 192,-30 212,-30 212,-10 192,-10"/>
<text text-anchor="start" x="215.629" y="-15.4" font-family="sans-serif" font-size="14.00" fill="#000000"> &#160;Declarations</text>
<polygon fill="#8dd3c7" stroke="transparent" points="305,-10 305,-30 325,-30 325,-10 305,-10"/>
<text text-anchor="start" x="328.7251" y="-15.4" font-family="sans-serif" font-size="14.00" fill="#000000"> &#160;Module</text>
<polygon fill="#80b1d3" stroke="transparent" points="391,-10 391,-30 411,-30 411,-10 391,-10"/>
<text text-anchor="start" x="414.7812" y="-15.4" font-family="sans-serif" font-size="14.00" fill="#000000"> &#160;Bootstrap</text>
<polygon fill="#fdb462" stroke="transparent" points="488,-10 488,-30 508,-30 508,-10 488,-10"/>
<text text-anchor="start" x="511.6732" y="-15.4" font-family="sans-serif" font-size="14.00" fill="#000000"> &#160;Providers</text>
<polygon fill="#fb8072" stroke="transparent" points="584,-10 584,-30 604,-30 604,-10 584,-10"/>
<text text-anchor="start" x="607.7258" y="-15.4" font-family="sans-serif" font-size="14.00" fill="#000000"> &#160;Exports</text>
<g id="clust1" class="cluster">
<title>cluster_AppModule</title>
<polygon fill="none" stroke="#000000" stroke-dasharray="1,5" points="8,-70 8,-268 844,-268 844,-70 8,-70"/>
</g>
<g id="clust2" class="cluster">
<title>cluster_AppModule_declarations</title>
<polygon fill="none" stroke="#000000" points="714,-78 714,-130 836,-130 836,-78 714,-78"/>
</g>
<g id="clust4" class="cluster">
<title>cluster_AppModule_imports</title>
<polygon fill="none" stroke="#000000" points="16,-78 16,-130 706,-130 706,-78 16,-78"/>
</g>
<g id="clust6" class="cluster">
<title>cluster_AppModule_bootstrap</title>
<polygon fill="none" stroke="#000000" points="381,-208 381,-260 505,-260 505,-208 381,-208"/>
</g>
<!-- AppComponent -->
<g id="node1" class="node">
<title>AppComponent</title>
<polygon fill="#ffffb3" stroke="#000000" points="827.9399,-122 722.0601,-122 722.0601,-86 827.9399,-86 827.9399,-122"/>
<text text-anchor="middle" x="775" y="-99.8" font-family="Times,serif" font-size="14.00" fill="#000000">AppComponent</text>
</g>
<!-- AppModule -->
<g id="node2" class="node">
<title>AppModule</title>
<polygon fill="#8dd3c7" stroke="#000000" points="484.6571,-187 481.6571,-191 460.6571,-191 457.6571,-187 401.3429,-187 401.3429,-151 484.6571,-151 484.6571,-187"/>
<text text-anchor="middle" x="443" y="-164.8" font-family="Times,serif" font-size="14.00" fill="#000000">AppModule</text>
</g>
<!-- AppComponent&#45;&gt;AppModule -->
<g id="edge1" class="edge">
<title>AppComponent&#45;&gt;AppModule</title>
<path fill="none" stroke="#000000" d="M775,-122.2843C775,-143.3211 775,-175 775,-175 775,-175 494.7119,-175 494.7119,-175"/>
<polygon fill="#000000" stroke="#000000" points="494.7119,-171.5001 484.7119,-175 494.7118,-178.5001 494.7119,-171.5001"/>
</g>
<!-- AppComponent  -->
<g id="node8" class="node">
<title>AppComponent </title>
<polygon fill="#80b1d3" stroke="#000000" points="497.439,-252 388.561,-252 388.561,-216 497.439,-216 497.439,-252"/>
<text text-anchor="middle" x="443" y="-229.8" font-family="Times,serif" font-size="14.00" fill="#000000">AppComponent </text>
</g>
<!-- AppModule&#45;&gt;AppComponent  -->
<g id="edge7" class="edge">
<title>AppModule&#45;&gt;AppComponent </title>
<path fill="none" stroke="#000000" stroke-dasharray="1,5" d="M443,-187.1061C443,-187.1061 443,-205.991 443,-205.991"/>
<polygon fill="#000000" stroke="#000000" points="439.5001,-205.9909 443,-215.991 446.5001,-205.991 439.5001,-205.9909"/>
</g>
<!-- BrowserModule -->
<g id="node3" class="node">
<title>BrowserModule</title>
<polygon fill="#8dd3c7" stroke="#000000" points="698.4734,-122 695.4734,-126 674.4734,-126 671.4734,-122 591.5266,-122 591.5266,-86 698.4734,-86 698.4734,-122"/>
<text text-anchor="middle" x="645" y="-99.8" font-family="Times,serif" font-size="14.00" fill="#000000">BrowserModule</text>
</g>
<!-- BrowserModule&#45;&gt;AppModule -->
<g id="edge2" class="edge">
<title>BrowserModule&#45;&gt;AppModule</title>
<path fill="none" stroke="#000000" d="M645,-122.0225C645,-139.3734 645,-163 645,-163 645,-163 494.8545,-163 494.8545,-163"/>
<polygon fill="#000000" stroke="#000000" points="494.8546,-159.5001 484.8545,-163 494.8545,-166.5001 494.8546,-159.5001"/>
</g>
<!-- AppRoutingModule -->
<g id="node4" class="node">
<title>AppRoutingModule</title>
<polygon fill="#8dd3c7" stroke="#000000" points="573.2744,-122 570.2744,-126 549.2744,-126 546.2744,-122 444.7256,-122 444.7256,-86 573.2744,-86 573.2744,-122"/>
<text text-anchor="middle" x="509" y="-99.8" font-family="Times,serif" font-size="14.00" fill="#000000">AppRoutingModule</text>
</g>
<!-- AppRoutingModule&#45;&gt;AppModule -->
<g id="edge3" class="edge">
<title>AppRoutingModule&#45;&gt;AppModule</title>
<path fill="none" stroke="#000000" d="M464.7206,-122.1061C464.7206,-122.1061 464.7206,-140.991 464.7206,-140.991"/>
<polygon fill="#000000" stroke="#000000" points="461.2206,-140.9909 464.7206,-150.991 468.2206,-140.991 461.2206,-140.9909"/>
</g>
<!-- SharedModule -->
<g id="node5" class="node">
<title>SharedModule</title>
<polygon fill="#8dd3c7" stroke="#000000" points="426.4231,-122 423.4231,-126 402.4231,-126 399.4231,-122 327.5769,-122 327.5769,-86 426.4231,-86 426.4231,-122"/>
<text text-anchor="middle" x="377" y="-99.8" font-family="Times,serif" font-size="14.00" fill="#000000">SharedModule</text>
</g>
<!-- SharedModule&#45;&gt;AppModule -->
<g id="edge4" class="edge">
<title>SharedModule&#45;&gt;AppModule</title>
<path fill="none" stroke="#000000" d="M413.6915,-122.1061C413.6915,-122.1061 413.6915,-140.991 413.6915,-140.991"/>
<polygon fill="#000000" stroke="#000000" points="410.1915,-140.9909 413.6915,-150.991 417.1915,-140.991 410.1915,-140.9909"/>
</g>
<!-- MatUiModule -->
<g id="node6" class="node">
<title>MatUiModule</title>
<polygon fill="#8dd3c7" stroke="#000000" points="310.0968,-122 307.0968,-126 286.0968,-126 283.0968,-122 213.9032,-122 213.9032,-86 310.0968,-86 310.0968,-122"/>
<text text-anchor="middle" x="262" y="-99.8" font-family="Times,serif" font-size="14.00" fill="#000000">MatUiModule</text>
</g>
<!-- MatUiModule&#45;&gt;AppModule -->
<g id="edge5" class="edge">
<title>MatUiModule&#45;&gt;AppModule</title>
<path fill="none" stroke="#000000" d="M262,-122.0225C262,-139.3734 262,-163 262,-163 262,-163 391.02,-163 391.02,-163"/>
<polygon fill="#000000" stroke="#000000" points="391.0201,-166.5001 401.02,-163 391.02,-159.5001 391.0201,-166.5001"/>
</g>
<!-- BrowserAnimationsModule -->
<g id="node7" class="node">
<title>BrowserAnimationsModule</title>
<polygon fill="#8dd3c7" stroke="#000000" points="196.3019,-122 193.3019,-126 172.3019,-126 169.3019,-122 23.6981,-122 23.6981,-86 196.3019,-86 196.3019,-122"/>
<text text-anchor="middle" x="110" y="-99.8" font-family="Times,serif" font-size="14.00" fill="#000000">BrowserAnimationsModule</text>
</g>
<!-- BrowserAnimationsModule&#45;&gt;AppModule -->
<g id="edge6" class="edge">
<title>BrowserAnimationsModule&#45;&gt;AppModule</title>
<path fill="none" stroke="#000000" d="M110,-122.2843C110,-143.3211 110,-175 110,-175 110,-175 391.1625,-175 391.1625,-175"/>
<polygon fill="#000000" stroke="#000000" points="391.1625,-178.5001 401.1625,-175 391.1625,-171.5001 391.1625,-178.5001"/>
</g>
</g>
</svg>
