<?xml version="1.0" encoding="UTF-8" standalone="no"?>
<!DOCTYPE svg PUBLIC "-//W3C//DTD SVG 1.1//EN"
 "http://www.w3.org/Graphics/SVG/1.1/DTD/svg11.dtd">
<!-- Generated by graphviz version 2.40.1 (20161225.0304)
 -->
<!-- Title: dependencies Pages: 1 -->
<svg width="2657pt" height="439pt"
 viewBox="0.00 0.00 2657.00 439.00" xmlns="http://www.w3.org/2000/svg" xmlns:xlink="http://www.w3.org/1999/xlink">
<g id="graph0" class="graph" transform="scale(1 1) rotate(0) translate(4 435)">
<title>dependencies</title>
<polygon fill="#ffffff" stroke="transparent" points="-4,4 -4,-435 2653,-435 2653,4 -4,4"/>
<text text-anchor="start" x="1303.5091" y="-42.4" font-family="sans-serif" font-weight="bold" font-size="14.00" fill="#000000">Legend</text>
<polygon fill="#ffffb3" stroke="transparent" points="1090.5,-10 1090.5,-30 1110.5,-30 1110.5,-10 1090.5,-10"/>
<text text-anchor="start" x="1114.129" y="-15.4" font-family="sans-serif" font-size="14.00" fill="#000000"> &#160;Declarations</text>
<polygon fill="#8dd3c7" stroke="transparent" points="1203.5,-10 1203.5,-30 1223.5,-30 1223.5,-10 1203.5,-10"/>
<text text-anchor="start" x="1227.2251" y="-15.4" font-family="sans-serif" font-size="14.00" fill="#000000"> &#160;Module</text>
<polygon fill="#80b1d3" stroke="transparent" points="1289.5,-10 1289.5,-30 1309.5,-30 1309.5,-10 1289.5,-10"/>
<text text-anchor="start" x="1313.2812" y="-15.4" font-family="sans-serif" font-size="14.00" fill="#000000"> &#160;Bootstrap</text>
<polygon fill="#fdb462" stroke="transparent" points="1386.5,-10 1386.5,-30 1406.5,-30 1406.5,-10 1386.5,-10"/>
<text text-anchor="start" x="1410.1732" y="-15.4" font-family="sans-serif" font-size="14.00" fill="#000000"> &#160;Providers</text>
<polygon fill="#fb8072" stroke="transparent" points="1482.5,-10 1482.5,-30 1502.5,-30 1502.5,-10 1482.5,-10"/>
<text text-anchor="start" x="1506.2258" y="-15.4" font-family="sans-serif" font-size="14.00" fill="#000000"> &#160;Exports</text>
<g id="clust1" class="cluster">
<title>cluster_AppModule</title>
<polygon fill="none" stroke="#000000" stroke-dasharray="1,5" points="698,-146 698,-423 1449,-423 1449,-146 698,-146"/>
</g>
<g id="clust2" class="cluster">
<title>cluster_AppModule_declarations</title>
<polygon fill="none" stroke="#000000" points="738,-219 738,-271 860,-271 860,-219 738,-219"/>
</g>
<g id="clust4" class="cluster">
<title>cluster_AppModule_imports</title>
<polygon fill="none" stroke="#000000" points="868,-154 868,-271 1441,-271 1441,-154 868,-154"/>
</g>
<g id="clust6" class="cluster">
<title>cluster_AppModule_bootstrap</title>
<polygon fill="none" stroke="#000000" points="827,-363 827,-415 951,-415 951,-363 827,-363"/>
</g>
<g id="clust8" class="cluster">
<title>cluster_AppRoutingModule</title>
<polygon fill="none" stroke="#000000" stroke-dasharray="1,5" points="1457,-211 1457,-279 1793,-279 1793,-211 1457,-211"/>
</g>
<g id="clust10" class="cluster">
<title>cluster_AppRoutingModule_imports</title>
<polygon fill="none" stroke="#000000" points="1591,-219 1591,-271 1785,-271 1785,-219 1591,-219"/>
</g>
<g id="clust11" class="cluster">
<title>cluster_AppRoutingModule_exports</title>
<polygon fill="none" stroke="#000000" points="1465,-219 1465,-271 1583,-271 1583,-219 1465,-219"/>
</g>
<g id="clust14" class="cluster">
<title>cluster_MatUiModule</title>
<polygon fill="none" stroke="#000000" stroke-dasharray="1,5" points="8,-70 8,-138 2641,-138 2641,-70 8,-70"/>
</g>
<g id="clust16" class="cluster">
<title>cluster_MatUiModule_imports</title>
<polygon fill="none" stroke="#000000" points="16,-78 16,-130 1370,-130 1370,-78 16,-78"/>
</g>
<g id="clust17" class="cluster">
<title>cluster_MatUiModule_exports</title>
<polygon fill="none" stroke="#000000" points="1378,-78 1378,-130 2633,-130 2633,-78 1378,-78"/>
</g>
<g id="clust20" class="cluster">
<title>cluster_SharedModule</title>
<polygon fill="none" stroke="#000000" stroke-dasharray="1,5" points="1457,-287 1457,-355 1755,-355 1755,-287 1457,-287"/>
</g>
<g id="clust21" class="cluster">
<title>cluster_SharedModule_declarations</title>
<polygon fill="none" stroke="#000000" points="1611,-295 1611,-347 1747,-347 1747,-295 1611,-295"/>
</g>
<g id="clust24" class="cluster">
<title>cluster_SharedModule_exports</title>
<polygon fill="none" stroke="#000000" points="1465,-295 1465,-347 1603,-347 1603,-295 1465,-295"/>
</g>
<!-- AppComponent -->
<g id="node1" class="node">
<title>AppComponent</title>
<polygon fill="#ffffb3" stroke="#000000" points="851.9399,-263 746.0601,-263 746.0601,-227 851.9399,-227 851.9399,-263"/>
<text text-anchor="middle" x="799" y="-240.8" font-family="Times,serif" font-size="14.00" fill="#000000">AppComponent</text>
</g>
<!-- AppModule -->
<g id="node2" class="node">
<title>AppModule</title>
<polygon fill="#8dd3c7" stroke="#000000" points="930.6571,-339 927.6571,-343 906.6571,-343 903.6571,-339 847.3429,-339 847.3429,-303 930.6571,-303 930.6571,-339"/>
<text text-anchor="middle" x="889" y="-316.8" font-family="Times,serif" font-size="14.00" fill="#000000">AppModule</text>
</g>
<!-- AppComponent&#45;&gt;AppModule -->
<g id="edge1" class="edge">
<title>AppComponent&#45;&gt;AppModule</title>
<path fill="none" stroke="#000000" d="M840.8512,-263.0109C840.8512,-285.4852 840.8512,-321 840.8512,-321 840.8512,-321 841.4806,-321 841.4806,-321"/>
<polygon fill="#000000" stroke="#000000" points="837.1458,-324.5002 847.1458,-321 837.1457,-317.5002 837.1458,-324.5002"/>
</g>
<!-- AppComponent  -->
<g id="node8" class="node">
<title>AppComponent </title>
<polygon fill="#80b1d3" stroke="#000000" points="943.439,-407 834.561,-407 834.561,-371 943.439,-371 943.439,-407"/>
<text text-anchor="middle" x="889" y="-384.8" font-family="Times,serif" font-size="14.00" fill="#000000">AppComponent </text>
</g>
<!-- AppModule&#45;&gt;AppComponent  -->
<g id="edge7" class="edge">
<title>AppModule&#45;&gt;AppComponent </title>
<path fill="none" stroke="#000000" stroke-dasharray="1,5" d="M889,-339.2228C889,-339.2228 889,-360.7269 889,-360.7269"/>
<polygon fill="#000000" stroke="#000000" points="885.5001,-360.7269 889,-370.7269 892.5001,-360.727 885.5001,-360.7269"/>
</g>
<!-- BrowserModule -->
<g id="node3" class="node">
<title>BrowserModule</title>
<polygon fill="#8dd3c7" stroke="#000000" points="982.4734,-198 979.4734,-202 958.4734,-202 955.4734,-198 875.5266,-198 875.5266,-162 982.4734,-162 982.4734,-198"/>
<text text-anchor="middle" x="929" y="-175.8" font-family="Times,serif" font-size="14.00" fill="#000000">BrowserModule</text>
</g>
<!-- BrowserModule&#45;&gt;AppModule -->
<g id="edge2" class="edge">
<title>BrowserModule&#45;&gt;AppModule</title>
<path fill="none" stroke="#000000" d="M893.9516,-198.1446C893.9516,-198.1446 893.9516,-292.925 893.9516,-292.925"/>
<polygon fill="#000000" stroke="#000000" points="890.4517,-292.925 893.9516,-302.925 897.4517,-292.925 890.4517,-292.925"/>
</g>
<!-- AppRoutingModule -->
<g id="node4" class="node">
<title>AppRoutingModule</title>
<polygon fill="#8dd3c7" stroke="#000000" points="1433.2744,-198 1430.2744,-202 1409.2744,-202 1406.2744,-198 1304.7256,-198 1304.7256,-162 1433.2744,-162 1433.2744,-198"/>
<text text-anchor="middle" x="1369" y="-175.8" font-family="Times,serif" font-size="14.00" fill="#000000">AppRoutingModule</text>
</g>
<!-- AppRoutingModule&#45;&gt;AppModule -->
<g id="edge3" class="edge">
<title>AppRoutingModule&#45;&gt;AppModule</title>
<path fill="none" stroke="#000000" d="M1369,-198.0333C1369,-238.2965 1369,-332 1369,-332 1369,-332 940.7572,-332 940.7572,-332"/>
<polygon fill="#000000" stroke="#000000" points="940.7572,-328.5001 930.7572,-332 940.7571,-335.5001 940.7572,-328.5001"/>
</g>
<!-- RouterModule  -->
<g id="node10" class="node">
<title>RouterModule </title>
<polygon fill="#fb8072" stroke="#000000" points="1574.6523,-263 1473.3477,-263 1473.3477,-227 1574.6523,-227 1574.6523,-263"/>
<text text-anchor="middle" x="1524" y="-240.8" font-family="Times,serif" font-size="14.00" fill="#000000">RouterModule </text>
</g>
<!-- AppRoutingModule&#45;&gt;RouterModule  -->
<g id="edge9" class="edge">
<title>AppRoutingModule&#45;&gt;RouterModule </title>
<path fill="none" stroke="#000000" stroke-dasharray="5,2" d="M1433.4974,-186C1467.3552,-186 1501.8875,-186 1501.8875,-186 1501.8875,-186 1501.8875,-216.9775 1501.8875,-216.9775"/>
<polygon fill="#000000" stroke="#000000" points="1498.3875,-216.9774 1501.8875,-226.9775 1505.3875,-216.9775 1498.3875,-216.9774"/>
</g>
<!-- SharedModule -->
<g id="node5" class="node">
<title>SharedModule</title>
<polygon fill="#8dd3c7" stroke="#000000" points="1288.4231,-263 1285.4231,-267 1264.4231,-267 1261.4231,-263 1189.5769,-263 1189.5769,-227 1288.4231,-227 1288.4231,-263"/>
<text text-anchor="middle" x="1239" y="-240.8" font-family="Times,serif" font-size="14.00" fill="#000000">SharedModule</text>
</g>
<!-- SharedModule&#45;&gt;AppModule -->
<g id="edge4" class="edge">
<title>SharedModule&#45;&gt;AppModule</title>
<path fill="none" stroke="#000000" d="M1189.7495,-245C1098.508,-245 912.3899,-245 912.3899,-245 912.3899,-245 912.3899,-292.9891 912.3899,-292.9891"/>
<polygon fill="#000000" stroke="#000000" points="908.89,-292.989 912.3899,-302.9891 915.89,-292.9891 908.89,-292.989"/>
</g>
<!-- SearchComponent  -->
<g id="node31" class="node">
<title>SearchComponent </title>
<polygon fill="#fb8072" stroke="#000000" points="1595.4194,-339 1472.5806,-339 1472.5806,-303 1595.4194,-303 1595.4194,-339"/>
<text text-anchor="middle" x="1534" y="-316.8" font-family="Times,serif" font-size="14.00" fill="#000000">SearchComponent </text>
</g>
<!-- SharedModule&#45;&gt;SearchComponent  -->
<g id="edge32" class="edge">
<title>SharedModule&#45;&gt;SearchComponent </title>
<path fill="none" stroke="#000000" stroke-dasharray="5,2" d="M1255.4037,-263.0348C1255.4037,-282.5762 1255.4037,-311 1255.4037,-311 1255.4037,-311 1462.516,-311 1462.516,-311"/>
<polygon fill="#000000" stroke="#000000" points="1462.516,-314.5001 1472.516,-311 1462.5159,-307.5001 1462.516,-314.5001"/>
</g>
<!-- MatUiModule -->
<g id="node6" class="node">
<title>MatUiModule</title>
<polygon fill="#8dd3c7" stroke="#000000" points="1287.0968,-198 1284.0968,-202 1263.0968,-202 1260.0968,-198 1190.9032,-198 1190.9032,-162 1287.0968,-162 1287.0968,-198"/>
<text text-anchor="middle" x="1239" y="-175.8" font-family="Times,serif" font-size="14.00" fill="#000000">MatUiModule</text>
</g>
<!-- MatUiModule&#45;&gt;AppModule -->
<g id="edge5" class="edge">
<title>MatUiModule&#45;&gt;AppModule</title>
<path fill="none" stroke="#000000" d="M1190.7131,-180C1185.1787,-180 1181.4699,-180 1181.4699,-180 1181.4699,-180 1181.4699,-325 1181.4699,-325 1181.4699,-325 940.9038,-325 940.9038,-325"/>
<polygon fill="#000000" stroke="#000000" points="940.9038,-321.5001 930.9038,-325 940.9038,-328.5001 940.9038,-321.5001"/>
</g>
<!-- MatUiModule&#45;&gt;SharedModule -->
<g id="edge31" class="edge">
<title>MatUiModule&#45;&gt;SharedModule</title>
<path fill="none" stroke="#000000" d="M1255.0161,-198.1061C1255.0161,-198.1061 1255.0161,-216.991 1255.0161,-216.991"/>
<polygon fill="#000000" stroke="#000000" points="1251.5162,-216.9909 1255.0161,-226.991 1258.5162,-216.991 1251.5162,-216.9909"/>
</g>
<!-- MatIconModule  -->
<g id="node21" class="node">
<title>MatIconModule </title>
<polygon fill="#fb8072" stroke="#000000" points="2377.4758,-122 2266.5242,-122 2266.5242,-86 2377.4758,-86 2377.4758,-122"/>
<text text-anchor="middle" x="2322" y="-99.8" font-family="Times,serif" font-size="14.00" fill="#000000">MatIconModule </text>
</g>
<!-- MatUiModule&#45;&gt;MatIconModule  -->
<g id="edge20" class="edge">
<title>MatUiModule&#45;&gt;MatIconModule </title>
<path fill="none" stroke="#000000" stroke-dasharray="5,2" d="M1274.7328,-161.9445C1274.7328,-150.561 1274.7328,-138 1274.7328,-138 1274.7328,-138 2322,-138 2322,-138 2322,-138 2322,-132.1944 2322,-132.1944"/>
<polygon fill="#000000" stroke="#000000" points="2325.5001,-132.1944 2322,-122.1944 2318.5001,-132.1945 2325.5001,-132.1944"/>
</g>
<!-- FlexLayoutModule  -->
<g id="node22" class="node">
<title>FlexLayoutModule </title>
<polygon fill="#fb8072" stroke="#000000" points="2248.596,-122 2121.404,-122 2121.404,-86 2248.596,-86 2248.596,-122"/>
<text text-anchor="middle" x="2185" y="-99.8" font-family="Times,serif" font-size="14.00" fill="#000000">FlexLayoutModule </text>
</g>
<!-- MatUiModule&#45;&gt;FlexLayoutModule  -->
<g id="edge21" class="edge">
<title>MatUiModule&#45;&gt;FlexLayoutModule </title>
<path fill="none" stroke="#000000" stroke-dasharray="5,2" d="M1270.6276,-161.8495C1270.6276,-149.7292 1270.6276,-136 1270.6276,-136 1270.6276,-136 2185,-136 2185,-136 2185,-136 2185,-132.2434 2185,-132.2434"/>
<polygon fill="#000000" stroke="#000000" points="2188.5001,-132.2434 2185,-122.2434 2181.5001,-132.2434 2188.5001,-132.2434"/>
</g>
<!-- MatInputModule  -->
<g id="node23" class="node">
<title>MatInputModule </title>
<polygon fill="#fb8072" stroke="#000000" points="2103.6509,-122 1988.3491,-122 1988.3491,-86 2103.6509,-86 2103.6509,-122"/>
<text text-anchor="middle" x="2046" y="-99.8" font-family="Times,serif" font-size="14.00" fill="#000000">MatInputModule </text>
</g>
<!-- MatUiModule&#45;&gt;MatInputModule  -->
<g id="edge22" class="edge">
<title>MatUiModule&#45;&gt;MatInputModule </title>
<path fill="none" stroke="#000000" stroke-dasharray="5,2" d="M1266.5224,-161.8196C1266.5224,-148.9618 1266.5224,-134 1266.5224,-134 1266.5224,-134 2046,-134 2046,-134 2046,-134 2046,-132.1432 2046,-132.1432"/>
<polygon fill="#000000" stroke="#000000" points="2049.5001,-132.1432 2046,-122.1432 2042.5001,-132.1432 2049.5001,-132.1432"/>
</g>
<!-- MatFormFieldModule  -->
<g id="node24" class="node">
<title>MatFormFieldModule </title>
<polygon fill="#fb8072" stroke="#000000" points="1970.2121,-122 1825.7879,-122 1825.7879,-86 1970.2121,-86 1970.2121,-122"/>
<text text-anchor="middle" x="1898" y="-99.8" font-family="Times,serif" font-size="14.00" fill="#000000">MatFormFieldModule </text>
</g>
<!-- MatUiModule&#45;&gt;MatFormFieldModule  -->
<g id="edge23" class="edge">
<title>MatUiModule&#45;&gt;MatFormFieldModule </title>
<path fill="none" stroke="#000000" stroke-dasharray="5,2" d="M1262.4173,-161.7542C1262.4173,-147.8228 1262.4173,-131 1262.4173,-131 1262.4173,-131 1898,-131 1898,-131 1898,-131 1898,-130.1159 1898,-130.1159"/>
<polygon fill="#000000" stroke="#000000" points="1901.5001,-132.1591 1898,-122.1592 1894.5001,-132.1592 1901.5001,-132.1591"/>
</g>
<!-- MatButtonModule  -->
<g id="node25" class="node">
<title>MatButtonModule </title>
<polygon fill="#fb8072" stroke="#000000" points="1807.7177,-122 1684.2823,-122 1684.2823,-86 1807.7177,-86 1807.7177,-122"/>
<text text-anchor="middle" x="1746" y="-99.8" font-family="Times,serif" font-size="14.00" fill="#000000">MatButtonModule </text>
</g>
<!-- MatUiModule&#45;&gt;MatButtonModule  -->
<g id="edge24" class="edge">
<title>MatUiModule&#45;&gt;MatButtonModule </title>
<path fill="none" stroke="#000000" stroke-dasharray="5,2" d="M1258.3121,-161.8757C1258.3121,-147.2168 1258.3121,-129 1258.3121,-129 1258.3121,-129 1730.4061,-129 1730.4061,-129 1730.4061,-129 1730.4061,-128.3169 1730.4061,-128.3169"/>
<polygon fill="#000000" stroke="#000000" points="1733.9062,-132.1686 1730.4061,-122.1686 1726.9062,-132.1687 1733.9062,-132.1686"/>
</g>
<!-- MatMenuModule  -->
<g id="node26" class="node">
<title>MatMenuModule </title>
<polygon fill="#fb8072" stroke="#000000" points="1666.2591,-122 1547.7409,-122 1547.7409,-86 1666.2591,-86 1666.2591,-122"/>
<text text-anchor="middle" x="1607" y="-99.8" font-family="Times,serif" font-size="14.00" fill="#000000">MatMenuModule </text>
</g>
<!-- MatUiModule&#45;&gt;MatMenuModule  -->
<g id="edge25" class="edge">
<title>MatUiModule&#45;&gt;MatMenuModule </title>
<path fill="none" stroke="#000000" stroke-dasharray="5,2" d="M1254.2069,-161.7604C1254.2069,-146.4294 1254.2069,-127 1254.2069,-127 1254.2069,-127 1561.2234,-127 1561.2234,-127 1561.2234,-127 1561.2234,-126.5122 1561.2234,-126.5122"/>
<polygon fill="#000000" stroke="#000000" points="1564.7236,-132.1222 1561.2234,-122.1223 1557.7236,-132.1224 1564.7236,-132.1222"/>
</g>
<!-- MatExpansionModule  -->
<g id="node27" class="node">
<title>MatExpansionModule </title>
<polygon fill="#fb8072" stroke="#000000" points="1530.2023,-122 1385.7977,-122 1385.7977,-86 1530.2023,-86 1530.2023,-122"/>
<text text-anchor="middle" x="1458" y="-99.8" font-family="Times,serif" font-size="14.00" fill="#000000">MatExpansionModule </text>
</g>
<!-- MatUiModule&#45;&gt;MatExpansionModule  -->
<g id="edge26" class="edge">
<title>MatUiModule&#45;&gt;MatExpansionModule </title>
<path fill="none" stroke="#000000" stroke-dasharray="5,2" d="M1250.1017,-161.9909C1250.1017,-145.9506 1250.1017,-125 1250.1017,-125 1250.1017,-125 1409.518,-125 1409.518,-125 1409.518,-125 1409.518,-124.708 1409.518,-124.708"/>
<polygon fill="#000000" stroke="#000000" points="1413.0184,-132.0799 1409.518,-122.08 1406.0184,-132.0802 1413.0184,-132.0799"/>
</g>
<!-- MatCardModule  -->
<g id="node28" class="node">
<title>MatCardModule </title>
<polygon fill="#fb8072" stroke="#000000" points="2625.3116,-122 2512.6884,-122 2512.6884,-86 2625.3116,-86 2625.3116,-122"/>
<text text-anchor="middle" x="2569" y="-99.8" font-family="Times,serif" font-size="14.00" fill="#000000">MatCardModule </text>
</g>
<!-- MatUiModule&#45;&gt;MatCardModule  -->
<g id="edge27" class="edge">
<title>MatUiModule&#45;&gt;MatCardModule </title>
<path fill="none" stroke="#000000" stroke-dasharray="5,2" d="M1282.9432,-161.8903C1282.9432,-152.103 1282.9432,-142 1282.9432,-142 1282.9432,-142 2569,-142 2569,-142 2569,-142 2569,-132.1097 2569,-132.1097"/>
<polygon fill="#000000" stroke="#000000" points="2572.5001,-132.1096 2569,-122.1097 2565.5001,-132.1097 2572.5001,-132.1096"/>
</g>
<!-- FormsModule  -->
<g id="node29" class="node">
<title>FormsModule </title>
<polygon fill="#fb8072" stroke="#000000" points="2494.3283,-122 2395.6717,-122 2395.6717,-86 2494.3283,-86 2494.3283,-122"/>
<text text-anchor="middle" x="2445" y="-99.8" font-family="Times,serif" font-size="14.00" fill="#000000">FormsModule </text>
</g>
<!-- MatUiModule&#45;&gt;FormsModule  -->
<g id="edge28" class="edge">
<title>MatUiModule&#45;&gt;FormsModule </title>
<path fill="none" stroke="#000000" stroke-dasharray="5,2" d="M1278.838,-161.8726C1278.838,-151.2891 1278.838,-140 1278.838,-140 1278.838,-140 2445,-140 2445,-140 2445,-140 2445,-132.4218 2445,-132.4218"/>
<polygon fill="#000000" stroke="#000000" points="2448.5001,-132.4218 2445,-122.4218 2441.5001,-132.4219 2448.5001,-132.4218"/>
</g>
<!-- BrowserAnimationsModule -->
<g id="node7" class="node">
<title>BrowserAnimationsModule</title>
<polygon fill="#8dd3c7" stroke="#000000" points="1173.3019,-198 1170.3019,-202 1149.3019,-202 1146.3019,-198 1000.6981,-198 1000.6981,-162 1173.3019,-162 1173.3019,-198"/>
<text text-anchor="middle" x="1087" y="-175.8" font-family="Times,serif" font-size="14.00" fill="#000000">BrowserAnimationsModule</text>
</g>
<!-- BrowserAnimationsModule&#45;&gt;AppModule -->
<g id="edge6" class="edge">
<title>BrowserAnimationsModule&#45;&gt;AppModule</title>
<path fill="none" stroke="#000000" d="M1087,-198.0411C1087,-235.4476 1087,-318 1087,-318 1087,-318 940.9907,-318 940.9907,-318"/>
<polygon fill="#000000" stroke="#000000" points="940.9907,-314.5001 930.9907,-318 940.9907,-321.5001 940.9907,-314.5001"/>
</g>
<!-- RouterModule.forRoot(args) -->
<g id="node9" class="node">
<title>RouterModule.forRoot(args)</title>
<polygon fill="#8dd3c7" stroke="#000000" points="1776.8419,-263 1773.8419,-267 1752.8419,-267 1749.8419,-263 1599.1581,-263 1599.1581,-227 1776.8419,-227 1776.8419,-263"/>
<text text-anchor="middle" x="1688" y="-240.8" font-family="Times,serif" font-size="14.00" fill="#000000">RouterModule.forRoot(args)</text>
</g>
<!-- RouterModule.forRoot(args)&#45;&gt;AppRoutingModule -->
<g id="edge8" class="edge">
<title>RouterModule.forRoot(args)&#45;&gt;AppRoutingModule</title>
<path fill="none" stroke="#000000" d="M1632.7293,-226.7157C1632.7293,-205.6789 1632.7293,-174 1632.7293,-174 1632.7293,-174 1443.5154,-174 1443.5154,-174"/>
<polygon fill="#000000" stroke="#000000" points="1443.5155,-170.5001 1433.5154,-174 1443.5154,-177.5001 1443.5155,-170.5001"/>
</g>
<!-- CommonModule -->
<g id="node11" class="node">
<title>CommonModule</title>
<polygon fill="#8dd3c7" stroke="#000000" points="135.6681,-122 132.6681,-126 111.6681,-126 108.6681,-122 24.3319,-122 24.3319,-86 135.6681,-86 135.6681,-122"/>
<text text-anchor="middle" x="80" y="-99.8" font-family="Times,serif" font-size="14.00" fill="#000000">CommonModule</text>
</g>
<!-- CommonModule&#45;&gt;SharedModule -->
<g id="edge30" class="edge">
<title>CommonModule&#45;&gt;SharedModule</title>
<path fill="none" stroke="#000000" d="M61.3887,-122.4904C61.3887,-153.5885 61.3887,-213 61.3887,-213 61.3887,-213 1222.9839,-213 1222.9839,-213 1222.9839,-213 1222.9839,-216.7566 1222.9839,-216.7566"/>
<polygon fill="#000000" stroke="#000000" points="1219.484,-216.7566 1222.9839,-226.7566 1226.484,-216.7566 1219.484,-216.7566"/>
</g>
<!-- CommonModule&#45;&gt;MatUiModule -->
<g id="edge10" class="edge">
<title>CommonModule&#45;&gt;MatUiModule</title>
<path fill="none" stroke="#000000" d="M98.6113,-122.027C98.6113,-138.3976 98.6113,-160 98.6113,-160 98.6113,-160 1194.2229,-160 1194.2229,-160 1194.2229,-160 1194.2229,-160.1846 1194.2229,-160.1846"/>
<polygon fill="#000000" stroke="#000000" points="1190.7235,-151.8455 1194.2229,-161.8457 1197.7235,-151.8459 1190.7235,-151.8455"/>
</g>
<!-- MatIconModule -->
<g id="node12" class="node">
<title>MatIconModule</title>
<polygon fill="#8dd3c7" stroke="#000000" points="691.4748,-122 688.4748,-126 667.4748,-126 664.4748,-122 584.5252,-122 584.5252,-86 691.4748,-86 691.4748,-122"/>
<text text-anchor="middle" x="638" y="-99.8" font-family="Times,serif" font-size="14.00" fill="#000000">MatIconModule</text>
</g>
<!-- MatIconModule&#45;&gt;MatUiModule -->
<g id="edge11" class="edge">
<title>MatIconModule&#45;&gt;MatUiModule</title>
<path fill="none" stroke="#000000" d="M638,-122.037C638,-135.2913 638,-151 638,-151 638,-151 1207.3079,-151 1207.3079,-151 1207.3079,-151 1207.3079,-152.0799 1207.3079,-152.0799"/>
<polygon fill="#000000" stroke="#000000" points="1203.808,-151.7985 1207.3079,-161.7985 1210.808,-151.7986 1203.808,-151.7985"/>
</g>
<!-- FlexLayoutModule -->
<g id="node13" class="node">
<title>FlexLayoutModule</title>
<polygon fill="#8dd3c7" stroke="#000000" points="566.0954,-122 563.0954,-126 542.0954,-126 539.0954,-122 441.9046,-122 441.9046,-86 566.0954,-86 566.0954,-122"/>
<text text-anchor="middle" x="504" y="-99.8" font-family="Times,serif" font-size="14.00" fill="#000000">FlexLayoutModule</text>
</g>
<!-- FlexLayoutModule&#45;&gt;MatUiModule -->
<g id="edge12" class="edge">
<title>FlexLayoutModule&#45;&gt;MatUiModule</title>
<path fill="none" stroke="#000000" d="M504,-122.0511C504,-136.373 504,-154 504,-154 504,-154 1204.0366,-154 1204.0366,-154 1204.0366,-154 1204.0366,-154.7942 1204.0366,-154.7942"/>
<polygon fill="#000000" stroke="#000000" points="1200.5367,-151.9421 1204.0366,-161.9421 1207.5367,-151.9422 1200.5367,-151.9421"/>
</g>
<!-- MatInputModule -->
<g id="node14" class="node">
<title>MatInputModule</title>
<polygon fill="#8dd3c7" stroke="#000000" points="423.6513,-122 420.6513,-126 399.6513,-126 396.6513,-122 312.3487,-122 312.3487,-86 423.6513,-86 423.6513,-122"/>
<text text-anchor="middle" x="368" y="-99.8" font-family="Times,serif" font-size="14.00" fill="#000000">MatInputModule</text>
</g>
<!-- MatInputModule&#45;&gt;MatUiModule -->
<g id="edge13" class="edge">
<title>MatInputModule&#45;&gt;MatUiModule</title>
<path fill="none" stroke="#000000" d="M368,-122.1871C368,-137.1824 368,-156 368,-156 368,-156 1200.7654,-156 1200.7654,-156 1200.7654,-156 1200.7654,-156.581 1200.7654,-156.581"/>
<polygon fill="#000000" stroke="#000000" points="1197.2655,-151.8097 1200.7654,-161.8097 1204.2655,-151.8098 1197.2655,-151.8097"/>
</g>
<!-- MatFormFieldModule -->
<g id="node15" class="node">
<title>MatFormFieldModule</title>
<polygon fill="#8dd3c7" stroke="#000000" points="294.712,-122 291.712,-126 270.712,-126 267.712,-122 153.288,-122 153.288,-86 294.712,-86 294.712,-122"/>
<text text-anchor="middle" x="224" y="-99.8" font-family="Times,serif" font-size="14.00" fill="#000000">MatFormFieldModule</text>
</g>
<!-- MatFormFieldModule&#45;&gt;MatUiModule -->
<g id="edge14" class="edge">
<title>MatFormFieldModule&#45;&gt;MatUiModule</title>
<path fill="none" stroke="#000000" d="M224,-122.2819C224,-137.9478 224,-158 224,-158 224,-158 1197.4941,-158 1197.4941,-158 1197.4941,-158 1197.4941,-158.3832 1197.4941,-158.3832"/>
<polygon fill="#000000" stroke="#000000" points="1193.9944,-151.832 1197.4941,-161.8321 1200.9944,-151.8322 1193.9944,-151.832"/>
</g>
<!-- MatButtonModule -->
<g id="node16" class="node">
<title>MatButtonModule</title>
<polygon fill="#8dd3c7" stroke="#000000" points="1362.2176,-122 1359.2176,-126 1338.2176,-126 1335.2176,-122 1241.7824,-122 1241.7824,-86 1362.2176,-86 1362.2176,-122"/>
<text text-anchor="middle" x="1302" y="-99.8" font-family="Times,serif" font-size="14.00" fill="#000000">MatButtonModule</text>
</g>
<!-- MatButtonModule&#45;&gt;MatUiModule -->
<g id="edge15" class="edge">
<title>MatButtonModule&#45;&gt;MatUiModule</title>
<path fill="none" stroke="#000000" d="M1245.9965,-122.0109C1245.9965,-122.0109 1245.9965,-151.855 1245.9965,-151.855"/>
<polygon fill="#000000" stroke="#000000" points="1242.4966,-151.8549 1245.9965,-161.855 1249.4966,-151.855 1242.4966,-151.8549"/>
</g>
<!-- FormsModule -->
<g id="node17" class="node">
<title>FormsModule</title>
<polygon fill="#8dd3c7" stroke="#000000" points="1223.8288,-122 1220.8288,-126 1199.8288,-126 1196.8288,-122 1128.1712,-122 1128.1712,-86 1223.8288,-86 1223.8288,-122"/>
<text text-anchor="middle" x="1176" y="-99.8" font-family="Times,serif" font-size="14.00" fill="#000000">FormsModule</text>
</g>
<!-- FormsModule&#45;&gt;MatUiModule -->
<g id="edge16" class="edge">
<title>FormsModule&#45;&gt;MatUiModule</title>
<path fill="none" stroke="#000000" d="M1220.3929,-122.0109C1220.3929,-122.0109 1220.3929,-151.855 1220.3929,-151.855"/>
<polygon fill="#000000" stroke="#000000" points="1216.8929,-151.8549 1220.3929,-161.855 1223.8929,-151.855 1216.8929,-151.8549"/>
</g>
<!-- MatExpansionModule -->
<g id="node18" class="node">
<title>MatExpansionModule</title>
<polygon fill="#8dd3c7" stroke="#000000" points="1110.7021,-122 1107.7021,-126 1086.7021,-126 1083.7021,-122 969.2979,-122 969.2979,-86 1110.7021,-86 1110.7021,-122"/>
<text text-anchor="middle" x="1040" y="-99.8" font-family="Times,serif" font-size="14.00" fill="#000000">MatExpansionModule</text>
</g>
<!-- MatExpansionModule&#45;&gt;MatUiModule -->
<g id="edge17" class="edge">
<title>MatExpansionModule&#45;&gt;MatUiModule</title>
<path fill="none" stroke="#000000" d="M1055.7251,-122.1025C1055.7251,-133.0859 1055.7251,-145 1055.7251,-145 1055.7251,-145 1217.1216,-145 1217.1216,-145 1217.1216,-145 1217.1216,-151.68 1217.1216,-151.68"/>
<polygon fill="#000000" stroke="#000000" points="1213.6217,-151.6799 1217.1216,-161.68 1220.6217,-151.68 1213.6217,-151.6799"/>
</g>
<!-- MatMenuModule -->
<g id="node19" class="node">
<title>MatMenuModule</title>
<polygon fill="#8dd3c7" stroke="#000000" points="951.2591,-122 948.2591,-126 927.2591,-126 924.2591,-122 836.7409,-122 836.7409,-86 951.2591,-86 951.2591,-122"/>
<text text-anchor="middle" x="894" y="-99.8" font-family="Times,serif" font-size="14.00" fill="#000000">MatMenuModule</text>
</g>
<!-- MatMenuModule&#45;&gt;MatUiModule -->
<g id="edge18" class="edge">
<title>MatMenuModule&#45;&gt;MatUiModule</title>
<path fill="none" stroke="#000000" d="M913.4464,-122.4854C913.4464,-134.1399 913.4464,-147 913.4464,-147 913.4464,-147 1213.8504,-147 1213.8504,-147 1213.8504,-147 1213.8504,-151.9551 1213.8504,-151.9551"/>
<polygon fill="#000000" stroke="#000000" points="1210.3504,-151.9551 1213.8504,-161.9551 1217.3504,-151.9552 1210.3504,-151.9551"/>
</g>
<!-- MatCardModule -->
<g id="node20" class="node">
<title>MatCardModule</title>
<polygon fill="#8dd3c7" stroke="#000000" points="818.8118,-122 815.8118,-126 794.8118,-126 791.8118,-122 709.1882,-122 709.1882,-86 818.8118,-86 818.8118,-122"/>
<text text-anchor="middle" x="764" y="-99.8" font-family="Times,serif" font-size="14.00" fill="#000000">MatCardModule</text>
</g>
<!-- MatCardModule&#45;&gt;MatUiModule -->
<g id="edge19" class="edge">
<title>MatCardModule&#45;&gt;MatUiModule</title>
<path fill="none" stroke="#000000" d="M782.4681,-122.0439C782.4681,-134.5633 782.4681,-149 782.4681,-149 782.4681,-149 1210.5791,-149 1210.5791,-149 1210.5791,-149 1210.5791,-151.9672 1210.5791,-151.9672"/>
<polygon fill="#000000" stroke="#000000" points="1207.0792,-151.9671 1210.5791,-161.9672 1214.0792,-151.9672 1207.0792,-151.9671"/>
</g>
<!-- SearchComponent -->
<g id="node30" class="node">
<title>SearchComponent</title>
<polygon fill="#ffffb3" stroke="#000000" points="1738.9201,-339 1619.0799,-339 1619.0799,-303 1738.9201,-303 1738.9201,-339"/>
<text text-anchor="middle" x="1679" y="-316.8" font-family="Times,serif" font-size="14.00" fill="#000000">SearchComponent</text>
</g>
<!-- SearchComponent&#45;&gt;SharedModule -->
<g id="edge29" class="edge">
<title>SearchComponent&#45;&gt;SharedModule</title>
<path fill="none" stroke="#000000" d="M1679,-302.8903C1679,-293.103 1679,-283 1679,-283 1679,-283 1222.5963,-283 1222.5963,-283 1222.5963,-283 1222.5963,-273.1097 1222.5963,-273.1097"/>
<polygon fill="#000000" stroke="#000000" points="1226.0964,-273.1096 1222.5963,-263.1097 1219.0964,-273.1097 1226.0964,-273.1096"/>
</g>
</g>
</svg>
